<?xml version="1.0" encoding="iso-8859-1"?>
<!-- Generator: Adobe Illustrator 19.0.0, SVG Export Plug-In . SVG Version: 6.00 Build 0)  -->
<svg version="1.1" id="Capa_1" xmlns="http://www.w3.org/2000/svg" xmlns:xlink="http://www.w3.org/1999/xlink" x="0px" y="0px"
	 viewBox="0 0 512 512" style="enable-background:new 0 0 512 512;" xml:space="preserve">
<path style="fill:#4E4C58;" d="M266.039,446.896c-63.268,0-122.777-9.772-167.563-27.519C53.1,401.398,28.11,377.258,28.11,351.403
	c0-19.451,14.225-38.098,41.138-53.925l0.471-0.277h0.955l0.386,0.16c41.927,17.795,101.253,28,162.765,28
	c79.052,0,152.8-16.785,192.466-43.804l0.857-0.583l0.973,0.36c48.912,18.174,75.849,43.057,75.849,70.069
	c0,25.855-24.991,49.995-70.367,67.975C388.816,437.124,329.307,446.896,266.039,446.896z"/>
<path style="fill:#605D69;" d="M233.823,329.377c-62.759,0-120.965-9.999-163.956-28.16l-0.387-0.16
	c-39.626-16.804-61.449-38.953-61.449-62.365c0-26.473,28.353-51.494,77.788-68.648l1.091-0.378l0.876,0.753
	c30.034,25.838,96.061,42.533,168.213,42.533c60.465,0,117.242-11.688,151.879-31.264l0.927-0.523l0.954,0.474
	c32.622,16.192,49.866,35.921,49.866,57.054c0,16.356-10.746,32.325-31.075,46.183C388.254,312.324,313.639,329.377,233.823,329.377
	z"/>
<path style="fill:#4E4C58;" d="M256,216.968c-73.056,0-140.111-17.077-170.831-43.504c-11.775-10.111-17.745-21.022-17.745-32.433
	c0-20.627,19.857-39.853,55.911-54.138C158.801,72.843,205.915,65.104,256,65.104s97.199,7.738,132.664,21.789
	c36.056,14.285,55.911,33.512,55.911,54.138c0,16.041-12.006,31.308-34.721,44.152C374.642,205.086,317.127,216.968,256,216.968z"/>
<path d="M447.024,280.39c13.554-12.788,20.633-26.985,20.633-41.698c0-20.724-13.57-39.877-39.449-55.989
	c19.772-15.258,24.4-30.645,24.4-41.672c0-24.145-21.659-46.024-60.985-61.605C355.239,65.012,307.074,57.073,256,57.073
	s-99.239,7.939-135.623,22.354c-39.327,15.581-60.985,37.459-60.985,61.604c0,9.241,3.262,18.325,9.525,26.809
	C24.33,186.113,0,210.972,0,238.692c0,23.202,17.619,44.856,50.027,62.021c-19.665,15.151-29.949,32.454-29.949,50.689
	c0,29.374,26.792,56.165,75.44,75.441c45.706,18.111,106.264,28.084,170.521,28.084s124.816-9.974,170.521-28.084
	c48.648-19.274,75.44-46.067,75.44-75.441C512,324.1,489.076,299.232,447.024,280.39z M256,77.151
	c104.031,0,176.53,33.666,176.53,63.881c0,11.279-10.159,23.236-28.602,33.665C370.442,193.621,315.142,204.92,256,204.92
	c-70.342,0-134.314-15.932-162.975-40.591c-0.002-0.002-0.004-0.004-0.007-0.006c-8.99-7.718-13.548-15.555-13.548-23.293
	C79.47,110.817,151.969,77.151,256,77.151z M20.078,238.692c0-19.883,24.008-40.399,64.518-55.404
	c34.075,25.831,98.829,41.711,171.404,41.711c59.757,0,116.335-11.242,152.967-30.218c24.945,13.312,38.612,28.796,38.612,43.912
	c0,15.401-14.037,28.202-25.811,36.228c-38.403,26.159-110.419,42.41-187.944,42.41c-60.474,0-118.656-9.973-159.627-27.362
	c-0.083-0.036-0.168-0.07-0.253-0.104C39.706,275.297,20.078,256.654,20.078,238.692z M429.164,408.177
	c-43.408,17.2-101.34,26.671-163.125,26.671s-119.718-9.472-163.125-26.671c-39.883-15.803-62.757-36.497-62.757-56.775
	c0-17.255,15.989-31.45,31.001-40.975c43.476,17.419,100.968,26.979,162.666,26.979c79.742,0,151.932-16.004,194.789-42.984
	c40.307,15.84,63.308,36.466,63.308,56.98C491.922,371.681,469.047,392.375,429.164,408.177z"/>
<path d="M256,121.801c24.589,0,48.241,1.706,68.399,4.933c0.538,0.086,1.072,0.129,1.599,0.129c4.845,0,9.111-3.517,9.901-8.454
	c0.877-5.474-2.851-10.624-8.326-11.5c-21.19-3.393-45.939-5.186-71.574-5.186c-5.545,0-10.039,4.496-10.039,10.039
	C245.961,117.305,250.455,121.801,256,121.801z"/>
<path d="M356.392,132.518c12.919,0,12.941-20.078,0-20.078C343.473,112.439,343.452,132.518,356.392,132.518z"/>
<g>
</g>
<g>
</g>
<g>
</g>
<g>
</g>
<g>
</g>
<g>
</g>
<g>
</g>
<g>
</g>
<g>
</g>
<g>
</g>
<g>
</g>
<g>
</g>
<g>
</g>
<g>
</g>
<g>
</g>
</svg>
